<!DOCTYPE svg PUBLIC "-//W3C//DTD SVG 1.1//EN" "http://www.w3.org/Graphics/SVG/1.1/DTD/svg11.dtd">

<!-- Uploaded to: SVG Repo, www.svgrepo.com, Transformed by: SVG Repo Mixer Tools -->
<svg fill="#007bff" height="100px" width="100px" version="1.1" id="Capa_1" xmlns="http://www.w3.org/2000/svg" xmlns:xlink="http://www.w3.org/1999/xlink" viewBox="0 0 490.1 490.1" xml:space="preserve" stroke="#3d63f0">

<g id="SVGRepo_bgCarrier" stroke-width="0"/>

<g id="SVGRepo_tracerCarrier" stroke-linecap="round" stroke-linejoin="round"/>

<g id="SVGRepo_iconCarrier"> <g> <path d="M469.2,0.6H20.8C9.4,0.6,0,10,0,21.4v348.5c0,11.4,9.4,20.8,20.8,20.8h202.9v57.2h-57.2c-11.4,0-20.8,9.4-20.8,20.8 s9.4,20.8,20.8,20.8h156.1c11.4,0,19.8-9.4,20.8-20.8c0-11.4-9.4-20.8-20.8-20.8h-57.2v-57.2h202.9c11.4,0,20.8-9.4,21.8-20.8V21.4 C490,10,480.6,0.6,469.2,0.6z M448.4,350.2H40.6v-309h407.8V350.2z"/> </g> </g>

</svg>